<?xml version="1.0" encoding="utf-8"?>
<!-- Generator: Adobe Illustrator 27.3.1, SVG Export Plug-In . SVG Version: 6.00 Build 0)  -->
<svg version="1.1" id="Layer_2_00000096044435733005639660000004441033308682378943_"
	 xmlns="http://www.w3.org/2000/svg" xmlns:xlink="http://www.w3.org/1999/xlink" x="0px" y="0px" viewBox="0 0 407.6 473.6"
	 style="enable-background:new 0 0 407.6 473.6;" xml:space="preserve">
<style type="text/css">
	.st0{fill:#111111;}
</style>
<g id="Layer_1-2">
	<g>
		<g>
			<polygon class="st0" points="92.2,461.5 96.9,461.5 96.9,473.4 100.4,473.4 100.4,461.5 105.1,461.5 105.1,458.7 92.2,458.7 			
				"/>
			<path class="st0" d="M126.7,468.6c1-0.4,1.7-1,2.2-1.8s0.8-1.7,0.8-2.8s-0.3-2-0.8-2.9c-0.5-0.8-1.3-1.4-2.2-1.8
				c-1-0.4-2.1-0.6-3.4-0.6h-6.4v14.7h3.4v-4.1h3c0.1,0,0.1,0,0.2,0l2.8,4.1h3.7L126.7,468.6C126.7,468.7,126.7,468.7,126.7,468.6
				L126.7,468.6z M125.5,462.1c0.5,0.5,0.8,1.1,0.8,1.9s-0.3,1.4-0.8,1.9s-1.3,0.7-2.4,0.7h-2.8v-5.1h2.8
				C124.1,461.5,124.9,461.7,125.5,462.1L125.5,462.1z"/>
			<path class="st0" d="M147,458.7l-6.6,14.7h3.5l1.3-3.1h6.9l1.3,3.1h3.6l-6.6-14.7H147L147,458.7z M146.3,467.6l2.4-5.6l2.4,5.6
				H146.3L146.3,467.6z"/>
			<polygon class="st0" points="173.9,469.2 169.4,458.7 165.7,458.7 172.1,473.4 175.5,473.4 181.9,458.7 178.5,458.7 			"/>
			<polygon class="st0" points="196.5,467.2 203.3,467.2 203.3,464.6 196.5,464.6 196.5,461.4 204.2,461.4 204.2,458.7 193.1,458.7 
				193.1,473.4 204.5,473.4 204.5,470.6 196.5,470.6 			"/>
			<polygon class="st0" points="220.6,458.7 217.2,458.7 217.2,473.4 228,473.4 228,470.6 220.6,470.6 			"/>
			<polygon class="st0" points="243.3,458.7 239.9,458.7 239.9,473.4 250.7,473.4 250.7,470.6 243.3,470.6 			"/>
			<polygon class="st0" points="266,467.2 272.9,467.2 272.9,464.6 266,464.6 266,461.4 273.8,461.4 273.8,458.7 262.6,458.7 
				262.6,473.4 274,473.4 274,470.6 266,470.6 			"/>
			<path class="st0" d="M296.5,468.6c1-0.4,1.7-1,2.2-1.8s0.8-1.7,0.8-2.8s-0.3-2-0.8-2.9c-0.5-0.8-1.3-1.4-2.2-1.8
				c-1-0.4-2.1-0.6-3.4-0.6h-6.4v14.7h3.4v-4.1h3c0,0,0.1,0,0.2,0l2.8,4.1h3.7L296.5,468.6C296.5,468.7,296.5,468.7,296.5,468.6
				L296.5,468.6z M295.3,462.1c0.5,0.5,0.8,1.1,0.8,1.9s-0.3,1.4-0.8,1.9s-1.3,0.7-2.4,0.7h-2.8v-5.1h2.8
				C294,461.5,294.8,461.7,295.3,462.1L295.3,462.1z"/>
			<path class="st0" d="M322.8,467.1c-0.3-0.5-0.7-0.9-1.2-1.2s-1.1-0.5-1.7-0.7c-0.6-0.2-1.2-0.3-1.8-0.5s-1.2-0.3-1.7-0.4
				c-0.5-0.1-0.9-0.3-1.2-0.6s-0.5-0.5-0.5-0.9c0-0.3,0.1-0.6,0.3-0.9c0.2-0.2,0.5-0.4,0.9-0.6c0.4-0.1,1-0.2,1.6-0.2s1.3,0.1,2,0.3
				s1.4,0.5,2.1,0.9l1.1-2.6c-0.7-0.4-1.5-0.8-2.4-1c-0.9-0.2-1.8-0.3-2.8-0.3c-1.4,0-2.5,0.2-3.5,0.6c-0.9,0.4-1.6,1-2.1,1.7
				c-0.5,0.7-0.7,1.5-0.7,2.3c0,0.8,0.2,1.4,0.5,1.9s0.7,0.9,1.2,1.2s1.1,0.6,1.7,0.8c0.6,0.2,1.2,0.4,1.8,0.5s1.2,0.3,1.7,0.4
				c0.5,0.1,0.9,0.3,1.2,0.6s0.5,0.5,0.5,0.9c0,0.3-0.1,0.6-0.3,0.8c-0.2,0.2-0.5,0.4-0.9,0.6c-0.4,0.1-1,0.2-1.6,0.2
				c-0.9,0-1.8-0.1-2.6-0.4c-0.9-0.3-1.6-0.6-2.2-1.1l-1.2,2.6c0.7,0.5,1.5,0.9,2.6,1.2s2.2,0.5,3.4,0.5c1.4,0,2.6-0.2,3.5-0.6
				s1.6-1,2.1-1.7c0.5-0.7,0.7-1.4,0.7-2.3C323.3,468.3,323.1,467.7,322.8,467.1L322.8,467.1z"/>
		</g>
		<g>
			<path class="st0" d="M22.7,383.5L0,433.9h12.1l4.5-10.8h23.6l4.5,10.8H57l-22.7-50.4L22.7,383.5L22.7,383.5z M20.3,414.2
				l8.1-19.3l8.1,19.3C36.5,414.2,20.3,414.2,20.3,414.2z"/>
			<polygon class="st0" points="74.1,383.5 62.3,383.5 62.3,433.9 99.6,433.9 99.6,424.4 74.1,424.4 			"/>
			<polygon class="st0" points="161.7,403.3 138.6,403.3 138.6,383.5 126.8,383.5 126.8,433.9 138.6,433.9 138.6,413.2 161.7,413.2 
				161.7,433.9 173.4,433.9 173.4,383.5 161.7,383.5 			"/>
			<path class="st0" d="M201.5,383.5l-22.7,50.4h12.1l4.5-10.8H219l4.5,10.8h12.4l-22.7-50.4L201.5,383.5L201.5,383.5z M199.1,414.2
				l8.1-19.3l8.1,19.3H199.1z"/>
			<path class="st0" d="M275,417.7c3.3-1.4,5.8-3.5,7.6-6.2c1.8-2.7,2.7-5.9,2.7-9.7s-0.9-7.1-2.7-9.8s-4.3-4.8-7.6-6.3
				s-7.2-2.2-11.8-2.2h-22v50.4h11.8v-14h10.2c0.2,0,0.4,0,0.5,0l9.8,14.1h12.7L275,417.7C274.9,417.7,274.9,417.7,275,417.7
				L275,417.7z M270.7,395.3c1.8,1.5,2.7,3.7,2.7,6.5s-0.9,4.9-2.7,6.5s-4.5,2.3-8.1,2.3h-9.6V393h9.6
				C266.2,393,268.9,393.7,270.7,395.3L270.7,395.3z"/>
			<path class="st0" d="M310.6,383.5l-22.7,50.4h12.1l4.5-10.8h23.6l4.5,10.8h12.4l-22.7-50.4L310.6,383.5L310.6,383.5z
				 M308.2,414.2l8.1-19.3l8.1,19.3H308.2z"/>
			<polygon class="st0" points="407.6,433.9 407.4,383.5 397.8,383.5 379,414.8 360,383.5 350.2,383.5 350.2,433.9 361.3,433.9 
				361.3,404.3 376.2,428.5 381.5,428.5 396.5,403.6 396.5,433.9 			"/>
		</g>
		<g>
			<path class="st0" d="M374,326.7H62.1c-11.8,0-21.4,10-21.4,22.2v10h354.7v-10C395.4,336.7,385.8,326.7,374,326.7L374,326.7z"/>
			<path class="st0" d="M71.2,256.8h-9.6l6.2,54.8h20.1c0-16.2,0.7-30.4,2-43h256.4c1.3,12.6,2,26.8,2,43h20.1l6.2-54.8H365
				c-4.2-30.2-12.1-51.7-22.3-68v-63.9l11.6-16.1V88.9c-5.2-2.2-10.4-3.8-15.5-4.8v19.7l-11.6,16.1v49.2c-3.9-4-8-7.6-12.2-11v-38.2
				l-11.6-16.1V84.4c-9.5,1.9-15.5,4.5-15.5,4.5v19.8l11.6,16.1v22.3c-4.7-3.1-9.4-6-14.2-9c-20-12.4-40.7-25.2-59.2-49.4l-8-10.5
				l-8,10.5c-18.5,24.2-39.2,37-59.2,49.4c-4.8,3-9.6,5.9-14.2,9v-22.3l11.6-16.1V88.9c0,0-6-2.6-15.5-4.5v19.4l-11.6,16.1v38.2
				c-4.2,3.4-8.3,7-12.2,11v-49.2l-11.6-16.1V84.1c-5.1,1-10.3,2.5-15.5,4.8v19.8l11.6,16.1v63.9C83.2,205.1,75.4,226.5,71.2,256.8
				L71.2,256.8z M208,256.8h-19.7c0.6-55.9,10-74.8,19.7-90.9V256.8z M246.4,157.3c21,20.2,42.7,44.9,44,99.5h-22.4
				C267.4,197.1,256.7,174.7,246.4,157.3z M247.8,256.8h-19.7v-90.9C237.8,182,247.3,200.8,247.8,256.8z M189.8,157.3
				c-10.4,17.4-21,39.9-21.6,99.5h-22.4C147.1,202.2,168.8,177.5,189.8,157.3z M344.8,256.8h-34.4c-1.2-54.7-21.7-84.5-41.6-105.3
				c2,1.2,3.9,2.4,5.9,3.6C307.8,175.6,335.4,192.6,344.8,256.8L344.8,256.8z M161.5,155c1.9-1.2,3.9-2.4,5.9-3.6
				c-19.9,20.9-40.4,50.6-41.6,105.3H91.3C100.7,192.6,128.3,175.6,161.5,155L161.5,155z"/>
			<polygon class="st0" points="208,311.5 228.1,311.5 228.1,278.8 218.1,272.6 208,278.8 			"/>
			<polygon class="st0" points="145.8,311.5 145.8,272.6 125.7,278.8 125.7,311.5 			"/>
			<polygon class="st0" points="188.3,311.5 188.3,272.6 168.2,278.8 168.2,311.5 			"/>
			<polygon class="st0" points="268,311.5 268,278.8 247.9,272.6 247.9,311.5 			"/>
			<polygon class="st0" points="310.5,311.5 310.5,278.8 290.4,272.6 290.4,311.5 			"/>
			<path class="st0" d="M102.7,83.3c3.2-0.4,6.3-0.6,9.3-0.7V56.4l-9.3-7.5v-2.2h24.8v2.2l-9.3,7.5v26.3c3.3,0.2,6.4,0.5,9.3,0.9
				V60.7l9.3-7.5V37.5h-15.1L115,0l-6.6,37.5H93.4v15.8l9.3,7.5L102.7,83.3L102.7,83.3z"/>
			<path class="st0" d="M308.7,83.6c2.9-0.4,6-0.7,9.3-0.9V56.4l-9.3-7.5v-2.2h24.8v2.2l-9.3,7.5v26.2c3,0.1,6.1,0.3,9.3,0.7V60.8
				l9.3-7.5V37.5h-15.1L321.1,0l-6.6,37.5h-15.1v15.8l9.3,7.5V83.6z"/>
		</g>
	</g>
</g>
</svg>
