<?xml version="1.0" encoding="UTF-8"?>
<svg id="Layer_2" data-name="Layer 2" xmlns="http://www.w3.org/2000/svg" viewBox="0 0 147.55 51.99">
  <defs>
    <style>
      .cls-1 {
        fill: #fff;
      }

      .cls-2 {
        font-family: Avenir-Black, Avenir;
        font-size: 38.65px;
        font-weight: 800;
      }

      .cls-2, .cls-3 {
        fill: #231f20;
      }

      .cls-3 {
        font-family: HelveticaNeue-Light, 'Helvetica Neue';
        font-size: 11.04px;
        font-weight: 300;
      }

      .cls-4 {
        fill: #010101;
      }
    </style>
  </defs>
  <g id="Layer_1-2" data-name="Layer 1">
    <g>
      <g>
        <path class="cls-4" d="m9.3,29.41c-.14-.2-.25-.47-.25-.47v-1.1s1.19,0,1.19,0v1.02s2.83-1.66,2.83-1.66c-.15-.22-.27-.5-.27-.5v-1.15s1.24,0,1.24,0v1.07s2.16-1.27,2.16-1.27l.02-2.31c0-1.24.2-2.48.58-3.67l.47-1.49c.21-.66,1.21-.66,1.41,0l.44,1.44c.38,1.24.57,2.52.56,3.8l-.02,2.26.02-.03,2.17,1.3v-1.07s1.24,0,1.24,0v1.15s-.13.28-.29.49l2.82,1.69v-1.02s1.19,0,1.19,0v1.1s-.12.26-.27.46l2.26,1.35L17.89,4.35,7.02,30.73l2.29-1.32Z"/>
        <path class="cls-4" d="m29.63,32.85l-9.99-2.82-.02,2.81c.28.69,2.22,5.26,5.09,7.92,4.67,4.35,11.05,7.03,11.05,7.03h.03l-6.16-14.95Z"/>
        <path class="cls-4" d="m16.15,32.8l.02-2.78-9.97,2.68L0,47.75h.11c.88-.38,6.63-2.97,10.94-6.98,2.94-2.73,4.9-7.46,5.1-7.97Z"/>
        <line class="cls-1" x1="29.64" y1="32.85" x2="29.63" y2="32.85"/>
      </g>
      <text class="cls-2" transform="translate(42.29 33.01)"><tspan x="0" y="0">APEX</tspan></text>
      <text class="cls-3" transform="translate(44.21 45.99)"><tspan x="0" y="0">ONLINE AIR TICKET</tspan></text>
    </g>
  </g>
</svg>