<?xml version="1.0" encoding="UTF-8"?>
<svg id="Layer_2" data-name="Layer 2" xmlns="http://www.w3.org/2000/svg" viewBox="0 0 1301.23 1670.11">
  <defs>
    <style>
      .cls-1 {
        letter-spacing: 0em;
      }

      .cls-2 {
        letter-spacing: 0em;
      }

      .cls-3 {
        font-family: Montserrat-Bold, Montserrat;
        font-size: 293.73px;
        font-weight: 700;
      }

      .cls-3, .cls-4 {
        fill: #383838;
      }

      .cls-5 {
        letter-spacing: 0em;
      }

      .cls-6 {
        letter-spacing: -.01em;
      }
    </style>
  </defs>
  <g id="DEER_LOGO" data-name="DEER LOGO">
    <g>
      <text class="cls-3" transform="translate(0 1591.97)"><tspan x="0" y="0">De</tspan><tspan class="cls-1" x="427.96" y="0">A</tspan><tspan class="cls-6" x="651.49" y="0">t</tspan><tspan x="775.74" y="0">ti</tspan><tspan class="cls-5" x="991.92" y="0">r</tspan><tspan class="cls-2" x="1115.88" y="0">e</tspan></text>
      <g>
        <path class="cls-4" d="m732.77,1006.12c.51-2.02,40.3-162.1-79.65-215.27,0,0,43.53-11.81,72.15,7.44-.79-1.06-26.46-34.91-67.8-40.42-42-5.61-67.21,12.14-101.73,34.54-34.54,22.39-56.01,21.46-83.07,17.73-27.07-3.74-74.67-.93-117.6,13.07,0,0-3.42-.47-6.85-9.34,0,0,16.18-18.04,16.18-46.04,0,0-25.51-8.09-52.88,7.46,0,0-8.72,14.31-8.72,25.51,0,0,14.31,35.46,44.18,51.64,0,0,47.29-2.48,70.93,6.22,23.64,8.72,75.9,31.11,107.02,19.3-.78.73-35.49,32.68-92.71,8.08,0,0-4.35,34.22,80.28,95.2,84.62,60.97,105.78,123.2,92.08,169.25,0,0-4.98-83.39-115.74-115.74-109.8-32.08-178.01-62.93-169.48-133.77.07-.62.14-1.24.23-1.87,0,0-57.24,93.33,9.96,155.55,67.21,62.23,124.44,49.78,175.47,95.83,51.03,46.05,44.8,110.75,26.15,151.81h.02s.05-.03.09-.05c.02-.01.05-.02.09-.04,8.44-3.92,274.69-130.2,267.35-416.79,0,0-18.66,73.41-65.95,120.69Z"/>
        <path class="cls-4" d="m1004.05,99.56c-11.2,77.15-56.62,97.07-56.62,97.07C954.8,88.5,908.79,2.21,907.63.04c-.01-.03-.02-.04-.02-.04,48.21,242.94-73.06,370.73-74.66,372.39,20.52-32.67,32.97-93.02,32.97-93.02-125.68,256.36-315.47,252.63-375.21,215.29-59.73-37.33-49.77-116.35-49.77-116.35-9.96,14.31-12.14,31.42-12.14,31.42-58.8-31.72-64.4-87.73-64.4-87.73-5.59,86.8,67.21,127.87,67.21,127.87,36.39,111.06,139.38,102.67,139.38,102.67-23.03,16.17-74.05,6.22-74.05,6.22-1.24,14.93-18.66,34.22-18.66,34.22-13.69,6.85-28,18.66-28,18.66-34.23,87.74-76.54,112.63-76.54,112.63,36.41-13.07,66.58-57.86,92.09-88.98,25.51-31.11,73.43-43.55,97.07-41.68,23.64,1.87,53.51-9.33,53.51-9.33,266.93-98.94,328.53-327.61,328.53-327.61,67.21-61.6,59.12-157.11,59.12-157.11Z"/>
        <path class="cls-4" d="m597.11,634.36c-18.98,8.71-71.56,13.69-71.56,13.69-23.64,16.18-57.25,60.98-57.25,60.98,14.78-10.11,55.07-12.44,55.07-12.44,0,0-14.62-2.18-5.29-13.69,9.33-11.51,33.6-18.67,33.6-18.67-3.73,10.27-14.93,24.58-14.93,24.58,41.69-17.11,60.36-54.45,60.36-54.45Z"/>
        <path class="cls-4" d="m797.47,502.14s-8.87,28.47-46.2,41.53c-37.33,13.07-52.73,41.53-54.6,59.73,0,0,68.13,30.33,94.27,93.8,0,0-5.78-61.95-34.53-101.73,0,0,47.6-33.6,41.07-93.33Z"/>
        <path class="cls-4" d="m688.58,449.25s19.29-6.84,29.24-19.29c0,0-31.11-57.87-14.62-124.45,0,0-31.11,42.31-14.62,143.73Z"/>
        <path class="cls-4" d="m551.45,493.34c9.71,1.04,20.34.99,31.98-.54,0,0-23.31-94.88,52.53-202.97,0,0,84.05-4.23,140.97-66.77,0,0-43.86,29.88-126,36.41,0,0,26.43-55.75,91.65-100.45-.01,0-.02.01-.03.01-2.77.91-180.57,60.42-222.59,290.21,0,0-37.34,4.05-53.51-13.07,0,0,23.66,50.57,85,57.16Z"/>
        <path class="cls-4" d="m541.11,334.76c-32.36-55.38-8.71-107.96-8.71-107.96-42.93,66.27-8.71,150.58-8.71,150.58,2.49-21.47,17.42-42.62,17.42-42.62Z"/>
        <path class="cls-4" d="m475.47,548.81s-32.2-18.2-39.67-41.53c0,0-60.82-1.4-100.33-64.87,0,0,13.07,81.2,140,106.4Z"/>
      </g>
    </g>
  </g>
</svg>