<?xml version="1.0" encoding="utf-8"?>
<!-- Generator: Adobe Illustrator 27.3.1, SVG Export Plug-In . SVG Version: 6.00 Build 0)  -->
<svg version="1.1" id="Layer_2_00000054953469378929598720000017607211267577357702_"
	 xmlns="http://www.w3.org/2000/svg" xmlns:xlink="http://www.w3.org/1999/xlink" x="0px" y="0px" viewBox="0 0 2856.4 1233.5"
	 style="enable-background:new 0 0 2856.4 1233.5;" xml:space="preserve">
<style type="text/css">
	.st0{fill:#0F0F0F;}
</style>
<g id="Layer_1-2">
	<g>
		<g>
			<path class="st0" d="M713.7,738c-24.8-11.8-53.5-17.8-86.1-17.8H483.5v292.5h144.2c32.6,0,61.3-5.9,86.1-17.8
				c24.8-11.8,44.2-28.7,58.1-50.6c13.9-21.9,20.9-48,20.9-78.4s-7-56-20.9-77.7C757.9,766.7,738.5,749.9,713.7,738L713.7,738z
				 M684.5,904.4c-5.8,10.5-14,18.3-24.5,23.6s-22.6,7.9-36.6,7.9h-41.4V797.2h41.4c13.9,0,26.1,2.7,36.6,7.9s18.6,13.1,24.5,23.4
				c5.8,10.3,8.8,22.8,8.8,37.6S690.3,893.9,684.5,904.4z"/>
			<path class="st0" d="M1100.3,756.8c-14.8-13.8-32.2-24.5-52.2-32c-20.1-7.5-42.1-11.3-66-11.3s-45.6,3.8-65.8,11.3
				s-37.7,18.2-52.5,32s-26.3,30-34.5,48.5c-8.2,18.5-12.3,38.9-12.3,61.2s4.1,42.3,12.3,61c8.2,18.7,19.7,34.9,34.5,48.7
				c14.8,13.8,32.2,24.5,52.5,32c20.2,7.5,42.3,11.3,66.2,11.3s45.5-3.8,65.6-11.3s37.5-18.2,52.2-32c14.8-13.8,26.3-30,34.5-48.7
				c8.2-18.7,12.3-39,12.3-61s-4.1-42.7-12.3-61.2C1126.6,786.8,1115.1,770.6,1100.3,756.8L1100.3,756.8z M1042.6,897.3
				c-3.3,9.1-8,16.7-14,23c-6,6.3-13,11.1-20.9,14.4c-7.9,3.3-16.5,5-25.7,5s-17.8-1.7-25.7-5s-14.9-8.2-20.9-14.4
				c-6-6.3-10.7-13.9-14-23s-5-19.3-5-30.7s1.7-21.7,5-30.7c3.3-9,8-16.7,14-23c6-6.3,13-11.1,20.9-14.4c7.9-3.3,16.5-5,25.7-5
				s17.8,1.7,25.7,5s14.9,8.2,20.9,14.4c6,6.3,10.7,13.9,14,23c3.3,9.1,5,19.3,5,30.7S1046,888.2,1042.6,897.3z"/>
			<polygon class="st0" points="1452.2,720.3 1359.5,876 1264.1,720.3 1183,720.3 1183,1012.8 1272.9,1012.8 1272.9,884 
				1336.4,986.5 1379.9,986.5 1443.5,879.4 1444.2,1012.8 1534.1,1012.8 1533.2,720.3 			"/>
			<rect x="1581.7" y="720.3" class="st0" width="98.6" height="292.5"/>
			<polygon class="st0" points="1920.2,853.3 1809,720.3 1728,720.3 1728,1012.8 1824.1,1012.8 1824.1,879.8 1935.2,1012.8 
				2016.3,1012.8 2016.3,720.3 1920.2,720.3 			"/>
			<rect x="2063.9" y="720.3" class="st0" width="98.6" height="292.5"/>
			<path class="st0" d="M2481.9,756.8c-14.8-13.8-32.2-24.5-52.2-32c-20.1-7.5-42.1-11.3-66-11.3s-45.6,3.8-65.8,11.3
				s-37.7,18.2-52.4,32s-26.3,30-34.5,48.5c-8.2,18.5-12.3,38.9-12.3,61.2s4.1,42.3,12.3,61c8.2,18.7,19.7,34.9,34.5,48.7
				c14.8,13.8,32.2,24.5,52.4,32c20.2,7.5,42.3,11.3,66.2,11.3s45.6-3.8,65.6-11.3s37.5-18.2,52.2-32c14.8-13.8,26.3-30,34.5-48.7
				c8.2-18.7,12.3-39,12.3-61s-4.1-42.7-12.3-61.2C2508.1,786.8,2496.6,770.6,2481.9,756.8L2481.9,756.8z M2424.2,897.3
				c-3.3,9.1-8,16.7-14,23c-6,6.3-13,11.1-20.9,14.4c-7.9,3.3-16.5,5-25.7,5s-17.8-1.7-25.7-5s-14.9-8.2-20.9-14.4
				c-6-6.3-10.7-13.9-14-23s-5-19.3-5-30.7s1.7-21.7,5-30.7c3.3-9,8-16.7,14-23c6-6.3,13-11.1,20.9-14.4c7.9-3.3,16.5-5,25.7-5
				s17.8,1.7,25.7,5s14.9,8.2,20.9,14.4c6,6.3,10.7,13.9,14,23c3.3,9.1,5,19.3,5,30.7S2427.5,888.2,2424.2,897.3z"/>
			<polygon class="st0" points="2756.8,720.3 2756.8,853.3 2645.7,720.3 2564.6,720.3 2564.6,1012.8 2660.7,1012.8 2660.7,879.8 
				2771.9,1012.8 2852.9,1012.8 2852.9,720.3 			"/>
		</g>
		<g>
			<path class="st0" d="M526.9,1143.4c2.6-2.8,5.8-4.9,9.4-6.4c3.7-1.5,7.7-2.2,12.2-2.2c5.7,0,10.8,1.3,15.4,3.9
				c4.6,2.6,8.7,6.3,12.5,11l27.2-24.3c-6.3-8.3-14.3-14.6-24-19s-20.8-6.6-33.3-6.6c-10.2,0-19.7,1.6-28.4,4.8s-16.2,7.8-22.6,13.8
				c-6.4,6-11.3,13-14.9,21.2c-3.5,8.2-5.3,17.2-5.3,27s1.8,18.8,5.3,27s8.5,15.2,14.9,21.2c6.4,6,13.9,10.6,22.6,13.8
				c8.7,3.2,18.2,4.8,28.4,4.8c12.5,0,23.6-2.2,33.3-6.7c9.7-4.4,17.7-10.7,24-18.9l-27.2-24.3c-3.8,4.7-7.9,8.4-12.5,11
				s-9.7,3.9-15.4,3.9c-4.5,0-8.6-0.7-12.2-2.2c-3.7-1.5-6.8-3.6-9.4-6.4c-2.6-2.8-4.7-6.2-6.1-10.1c-1.5-3.9-2.2-8.4-2.2-13.2
				s0.7-9.3,2.2-13.2C522.3,1149.6,524.3,1146.2,526.9,1143.4L526.9,1143.4z"/>
			<path class="st0" d="M786.6,1118.9c-6.5-6-14-10.7-22.8-14c-8.8-3.3-18.4-4.9-28.8-4.9s-19.9,1.6-28.7,4.9
				c-8.8,3.3-16.5,7.9-22.9,14s-11.5,13.1-15,21.2c-3.6,8.1-5.4,17-5.4,26.7s1.8,18.5,5.4,26.6c3.6,8.2,8.6,15.2,15,21.2
				c6.4,6,14.1,10.7,22.9,14c8.8,3.3,18.5,4.9,28.9,4.9s19.9-1.6,28.6-4.9c8.8-3.3,16.4-7.9,22.8-14s11.5-13.1,15-21.2
				c3.6-8.2,5.4-17,5.4-26.6s-1.8-18.6-5.4-26.7C798.1,1132,793.1,1124.9,786.6,1118.9L786.6,1118.9z M761.5,1180.2
				c-1.5,3.9-3.5,7.3-6.1,10c-2.6,2.7-5.7,4.8-9.1,6.3c-3.5,1.5-7.2,2.2-11.2,2.2s-7.8-0.7-11.2-2.2s-6.5-3.6-9.1-6.3
				c-2.6-2.7-4.7-6.1-6.1-10c-1.5-3.9-2.2-8.4-2.2-13.4s0.7-9.5,2.2-13.4c1.5-3.9,3.5-7.3,6.1-10c2.6-2.7,5.7-4.8,9.1-6.3
				c3.5-1.5,7.2-2.2,11.2-2.2s7.8,0.7,11.2,2.2s6.5,3.6,9.1,6.3c2.6,2.7,4.7,6.1,6.1,10c1.5,3.9,2.2,8.4,2.2,13.4
				S762.9,1176.2,761.5,1180.2z"/>
			<polygon class="st0" points="961.4,1161 912.9,1102.9 877.5,1102.9 877.5,1230.6 919.4,1230.6 919.4,1172.6 968,1230.6 
				1003.3,1230.6 1003.3,1102.9 961.4,1102.9 			"/>
			<path class="st0" d="M1172,1162.8c-4.2-2.8-8.8-5-13.8-6.8c-5-1.7-10-3-15.1-4c-5.1-1-9.7-1.9-13.9-2.7
				c-4.2-0.8-7.6-1.9-10.1-3.2c-2.6-1.3-3.8-3-3.8-5.2c0-1.5,0.5-2.8,1.6-4s2.8-2.2,5.2-2.9c2.4-0.7,5.7-1.1,9.8-1.1
				c5.6,0,11.3,0.8,17.2,2.4s12,3.9,18.3,7.1l12.9-31.2c-6.7-3.8-14.2-6.6-22.6-8.4c-8.4-1.8-16.9-2.7-25.5-2.7
				c-13.1,0-24.1,1.9-32.9,5.8c-8.8,3.9-15.4,9.1-19.9,15.6c-4.4,6.5-6.7,13.7-6.7,21.6c0,6.8,1.3,12.5,3.8,17.1
				c2.6,4.6,5.9,8.2,10.1,11c4.2,2.8,8.8,5.1,13.9,6.8c5.1,1.7,10.1,3.1,15.1,4.1s9.6,2,13.8,2.9c4.2,0.9,7.6,2,10.1,3.4
				s3.8,3.2,3.8,5.5c0,1.5-0.6,2.7-1.6,3.7c-1.1,1-2.8,1.8-5.2,2.4s-5.6,0.8-9.8,0.8c-7.1,0-14.3-1.1-21.8-3.2
				c-7.5-2.1-14.3-4.9-20.3-8.5l-13.9,31.4c6.4,3.9,14.7,7.1,24.6,9.5c10,2.4,20.3,3.7,31,3.7c13.2,0,24.3-2,33-5.9
				c8.8-3.9,15.3-9.2,19.8-15.7c4.4-6.5,6.7-13.7,6.7-21.4c0-6.7-1.3-12.3-3.8-16.8C1179.6,1169.2,1176.2,1165.6,1172,1162.8
				L1172,1162.8z"/>
			<polygon class="st0" points="1242,1136.3 1279.4,1136.3 1279.4,1230.6 1322.4,1230.6 1322.4,1136.3 1359.8,1136.3 1359.8,1102.9 
				1242,1102.9 			"/>
			<path class="st0" d="M1538.2,1176.5c4.7-7.1,7.1-15.6,7.1-25.4s-2.4-18.4-7.1-25.6c-4.7-7.2-11.5-12.8-20.2-16.7
				c-8.7-3.9-19-5.8-30.9-5.8h-61.5v127.7h43.1v-32.1h11.7l21.7,32.1h46l-26.8-39.3C1528.4,1187.7,1534.1,1182.7,1538.2,1176.5
				L1538.2,1176.5z M1497.6,1140.1c2.9,2.7,4.3,6.3,4.3,10.9s-1.4,8.3-4.3,10.9c-2.9,2.7-7.3,4-13.2,4h-15.7v-29.9h15.7
				C1490.4,1136.1,1494.8,1137.5,1497.6,1140.1L1497.6,1140.1z"/>
			<path class="st0" d="M1697.3,1171.9c0,9.7-1.7,16.6-5.2,20.7s-8.2,6.1-14.3,6.1s-10.7-2-14.2-6.1s-5.3-11-5.3-20.7v-69h-43.1
				v70.2c0,19.1,5.5,33.9,16.4,44.5c10.9,10.6,26.2,15.9,45.8,15.9s34.8-5.3,45.8-15.9c10.9-10.6,16.4-25.4,16.4-44.5v-70.2h-42.3
				L1697.3,1171.9L1697.3,1171.9z"/>
			<path class="st0" d="M1860.7,1143.4c2.6-2.8,5.8-4.9,9.4-6.4c3.7-1.5,7.7-2.2,12.2-2.2c5.7,0,10.8,1.3,15.4,3.9
				c4.6,2.6,8.7,6.3,12.5,11l27.2-24.3c-6.3-8.3-14.3-14.6-24-19s-20.8-6.6-33.3-6.6c-10.2,0-19.7,1.6-28.4,4.8s-16.2,7.8-22.6,13.8
				c-6.4,6-11.3,13-14.9,21.2c-3.5,8.2-5.3,17.2-5.3,27s1.8,18.8,5.3,27s8.5,15.2,14.9,21.2c6.4,6,13.9,10.6,22.6,13.8
				c8.7,3.2,18.2,4.8,28.4,4.8c12.5,0,23.6-2.2,33.3-6.7c9.7-4.4,17.7-10.7,24-18.9l-27.2-24.3c-3.8,4.7-7.9,8.4-12.5,11
				s-9.7,3.9-15.4,3.9c-4.5,0-8.6-0.7-12.2-2.2s-6.8-3.6-9.4-6.4c-2.6-2.8-4.7-6.2-6.1-10.1s-2.2-8.4-2.2-13.2s0.7-9.3,2.2-13.2
				C1856,1149.6,1858.1,1146.2,1860.7,1143.4L1860.7,1143.4z"/>
			<polygon class="st0" points="1993.9,1136.3 2031.3,1136.3 2031.3,1230.6 2074.4,1230.6 2074.4,1136.3 2111.8,1136.3 
				2111.8,1102.9 1993.9,1102.9 			"/>
			<rect x="2177.6" y="1102.9" class="st0" width="43.1" height="127.7"/>
			<path class="st0" d="M2414.8,1118.9c-6.4-6-14.1-10.7-22.8-14c-8.8-3.3-18.4-4.9-28.8-4.9s-19.9,1.6-28.7,4.9
				c-8.8,3.3-16.4,7.9-22.9,14c-6.4,6-11.5,13.1-15.1,21.2c-3.6,8.1-5.4,17-5.4,26.7s1.8,18.5,5.4,26.6c3.6,8.2,8.6,15.2,15.1,21.2
				c6.4,6,14.1,10.7,22.9,14c8.8,3.3,18.4,4.9,28.9,4.9s19.9-1.6,28.6-4.9c8.8-3.3,16.4-7.9,22.8-14c6.4-6,11.5-13.1,15.1-21.2
				s5.4-17,5.4-26.6s-1.8-18.6-5.4-26.7C2426.3,1132,2421.2,1124.9,2414.8,1118.9L2414.8,1118.9z M2389.6,1180.2
				c-1.5,3.9-3.5,7.3-6.1,10c-2.6,2.7-5.7,4.8-9.1,6.3c-3.5,1.5-7.2,2.2-11.2,2.2s-7.8-0.7-11.2-2.2s-6.5-3.6-9.1-6.3
				c-2.6-2.7-4.6-6.1-6.1-10c-1.5-3.9-2.2-8.4-2.2-13.4s0.7-9.5,2.2-13.4c1.5-3.9,3.5-7.3,6.1-10c2.6-2.7,5.7-4.8,9.1-6.3
				c3.5-1.5,7.2-2.2,11.2-2.2s7.8,0.7,11.2,2.2s6.5,3.6,9.1,6.3c2.6,2.7,4.6,6.1,6.1,10c1.5,3.9,2.2,8.4,2.2,13.4
				S2391.1,1176.2,2389.6,1180.2z"/>
			<polygon class="st0" points="2589.6,1161 2541,1102.9 2505.6,1102.9 2505.6,1230.6 2547.6,1230.6 2547.6,1172.6 2596.1,1230.6 
				2631.5,1230.6 2631.5,1102.9 2589.6,1102.9 			"/>
			<path class="st0" d="M2810.3,1173.7c-2.6-4.5-5.9-8.2-10.1-10.9c-4.2-2.8-8.8-5-13.8-6.8c-5-1.7-10-3-15.1-4s-9.7-1.9-13.9-2.7
				c-4.2-0.8-7.6-1.9-10.1-3.2c-2.6-1.3-3.8-3-3.8-5.2c0-1.5,0.5-2.8,1.6-4s2.8-2.2,5.2-2.9c2.4-0.7,5.7-1.1,9.9-1.1
				c5.6,0,11.3,0.8,17.2,2.4s12,3.9,18.3,7.1l12.9-31.2c-6.7-3.8-14.2-6.6-22.6-8.4s-16.9-2.7-25.5-2.7c-13.1,0-24.1,1.9-32.9,5.8
				c-8.8,3.9-15.4,9.1-19.9,15.6c-4.4,6.5-6.7,13.7-6.7,21.6c0,6.8,1.3,12.5,3.8,17.1s5.9,8.2,10.1,11c4.2,2.8,8.8,5.1,13.9,6.8
				c5,1.7,10.1,3.1,15.1,4.1s9.6,2,13.8,2.9c4.2,0.9,7.6,2,10.1,3.4s3.8,3.2,3.8,5.5c0,1.5-0.6,2.7-1.6,3.7c-1.1,1-2.8,1.8-5.2,2.4
				c-2.4,0.6-5.6,0.8-9.8,0.8c-7.1,0-14.3-1.1-21.8-3.2c-7.5-2.1-14.3-4.9-20.3-8.5l-13.9,31.4c6.4,3.9,14.6,7.1,24.6,9.5
				c10,2.4,20.3,3.7,31,3.7c13.2,0,24.3-2,33-5.9c8.8-3.9,15.4-9.2,19.8-15.7c4.4-6.5,6.7-13.7,6.7-21.4
				C2814.1,1183.8,2812.9,1178.2,2810.3,1173.7L2810.3,1173.7z"/>
		</g>
		<path class="st0" d="M2809.5,513H1036.7c-9.3,0-18.4-2.8-26.1-7.9L728.2,316c-15.8-10.6-36.4-10.6-52.2,0L262.4,592.9
			c-13,8.7-20.8,23.3-20.8,39v455c0,25.9-21,46.9-46.9,46.9h-53.9c-25.9,0-46.9-21-46.9-46.9V140.8c0-25.9,21-46.9,46.9-46.9h249.1
			c25.9,0,46.9,21,46.9,46.9v148.7c0,37.5,41.8,59.9,73,39l0,0c13-8.7,20.8-23.3,20.8-39V46.9c0-25.9-21-46.9-46.9-46.9H46.9
			C21,0,0,21,0,46.9v1133.9c0,25.9,21,46.9,46.9,46.9h241.5c25.9,0,46.9-21,46.9-46.9V682c0-15.7,7.8-30.3,20.8-39L676,429
			c15.8-10.6,36.4-10.6,52.2,0l253.9,170c7.7,5.2,16.8,7.9,26.1,7.9l1801.2,0c25.9,0,46.9-21,46.9-46.9l0,0
			C2856.4,534,2835.4,513,2809.5,513L2809.5,513z"/>
	</g>
</g>
</svg>
