<?xml version="1.0" encoding="UTF-8"?>
<svg id="Layer_2" data-name="Layer 2" xmlns="http://www.w3.org/2000/svg" viewBox="0 0 104.71 97.75">
  <defs>
    <style>
      .cls-1 {
        fill: #1c161b;
      }

      .cls-2 {
        fill: #262225;
      }

      .cls-3 {
        fill: #121212;
      }

      .cls-4 {
        fill: #353535;
      }

      .cls-5 {
        fill: #1e1e1e;
      }
    </style>
  </defs>
  <g id="logos">
    <polygon class="cls-5" points="49.76 0 33.32 9.52 49.76 19.03 49.76 0"/>
    <polygon class="cls-3" points="12.84 19.03 29.32 9.52 29.32 28.54 12.84 19.03"/>
    <polygon points="19.41 29.46 19.41 48.48 35.9 38.97 19.41 29.46"/>
    <polygon class="cls-3" points="55.28 9.51 71.77 19.03 55.28 28.54 55.28 9.51"/>
    <polygon class="cls-3" points="0 50.19 16.45 40.68 16.45 59.7 0 50.19"/>
    <polygon class="cls-4" points="55.28 50.2 71.77 59.71 55.28 69.22 55.28 50.2"/>
    <polygon points="38.83 59.71 38.83 78.73 55.28 69.22 38.83 59.71"/>
    <polygon class="cls-2" points="71.77 97.75 55.28 88.25 71.77 78.73 71.77 97.75"/>
    <polygon class="cls-1" points="88.22 50.2 71.77 59.71 88.22 69.22 88.22 50.2"/>
    <polygon points="104.71 59.71 88.22 50.2 88.22 69.22 104.71 59.71"/>
    <polygon class="cls-3" points="104.71 59.71 104.71 78.73 88.22 69.22 104.71 59.71"/>
    <polygon points="71.77 97.75 88.22 88.25 71.77 78.73 71.77 97.75"/>
    <polygon class="cls-2" points="88.22 88.25 71.77 78.73 88.22 69.22 88.22 88.25"/>
    <polygon class="cls-5" points="104.71 78.73 88.22 88.25 88.22 69.22 104.71 78.73"/>
    <polygon points="71.77 78.73 71.77 59.71 55.28 69.22 71.77 78.73"/>
    <polygon class="cls-3" points="38.83 21.67 55.28 31.18 38.83 40.69 38.83 21.67"/>
    <polygon class="cls-5" points="22.34 50.2 38.83 59.71 38.83 40.69 22.34 50.2"/>
    <polygon class="cls-1" points="71.77 21.67 55.28 31.18 71.77 40.69 71.77 21.67"/>
    <polygon points="88.22 31.18 71.77 21.67 71.77 40.69 88.22 31.18"/>
    <polygon class="cls-3" points="88.22 31.18 88.22 50.2 71.77 40.69 88.22 31.18"/>
    <polygon class="cls-2" points="71.77 59.71 55.28 50.2 71.77 40.69 71.77 59.71"/>
    <polygon class="cls-5" points="88.22 50.2 71.77 59.71 71.77 40.69 88.22 50.2"/>
    <polygon class="cls-3" points="22.34 50.2 38.83 59.71 22.34 69.22 22.34 50.2"/>
    <polygon points="5.89 59.71 5.89 78.73 22.34 69.22 5.89 59.71"/>
    <polygon points="38.83 97.75 22.34 88.25 38.83 78.73 38.83 97.75"/>
    <polygon class="cls-3" points="22.34 88.25 38.83 78.73 22.34 69.22 22.34 88.25"/>
    <polygon class="cls-5" points="5.89 78.73 22.34 88.25 22.34 69.22 5.89 78.73"/>
    <polygon class="cls-4" points="38.83 40.69 55.28 50.2 38.83 59.71 38.83 40.69"/>
    <polygon class="cls-2" points="55.28 50.2 38.83 59.71 55.28 69.22 55.28 50.2"/>
    <polygon class="cls-5" points="38.83 97.75 55.28 88.25 38.83 78.73 38.83 97.75"/>
    <polygon class="cls-1" points="55.28 88.25 38.83 78.73 55.28 69.22 55.28 88.25"/>
    <polygon class="cls-4" points="71.77 78.73 55.28 88.25 55.28 69.22 71.77 78.73"/>
  </g>
</svg>