<?xml version="1.0" encoding="UTF-8"?>
<svg id="Layer_2" data-name="Layer 2" xmlns="http://www.w3.org/2000/svg" viewBox="0 0 116.77 107.86">
  <defs>
    <style>
      .cls-1, .cls-2, .cls-3 {
        fill: #2b2d31;
      }

      .cls-1, .cls-4, .cls-5 {
        fill-rule: evenodd;
      }

      .cls-2 {
        font-family: RoyaleSmithDemoRegular, 'Royale Smith Demo';
        font-size: 16.82px;
      }

      .cls-6 {
        letter-spacing: -.07em;
      }

      .cls-4 {
        fill: #fff;
      }

      .cls-7 {
        letter-spacing: -.04em;
      }

      .cls-8 {
        font-family: Maiken, Maiken;
        font-size: 7.52px;
      }

      .cls-8, .cls-9, .cls-10 {
        fill: #18191b;
      }

      .cls-11 {
        letter-spacing: -.03em;
      }

      .cls-12 {
        letter-spacing: -.03em;
      }

      .cls-5 {
        fill: #80807e;
      }

      .cls-13 {
        letter-spacing: 0em;
      }

      .cls-10 {
        font-family: Angelle, Angelle;
        font-size: 7.05px;
      }

      .cls-14 {
        letter-spacing: -.09em;
      }

      .cls-15 {
        letter-spacing: -.01em;
      }
    </style>
  </defs>
  <g id="Layer_1-2" data-name="Layer 1">
    <g>
      <text class="cls-2" transform="translate(0 98.51)"><tspan class="cls-15" x="0" y="0">S</tspan><tspan x="17.77" y="0">ee</tspan><tspan class="cls-7" x="29.72" y="0">M</tspan><tspan class="cls-13" x="53.22" y="0">e Saloon</tspan></text>
      <text class="cls-8" transform="translate(83.82 58)"><tspan class="cls-12" x="0" y="0">2</tspan><tspan class="cls-6" x="4.53" y="0">0</tspan><tspan class="cls-14" x="9.05" y="0">1</tspan><tspan x="11.11" y="0">9</tspan></text>
      <text class="cls-10" transform="translate(13.09 58)"><tspan x="0" y="0">E</tspan><tspan class="cls-11" x="3.67" y="0">S</tspan><tspan x="7.3" y="0">TD</tspan></text>
      <rect class="cls-9" x="13.09" y="49.24" width="16.92" height=".62"/>
      <rect class="cls-9" x="13.09" y="61.04" width="16.92" height=".61"/>
      <rect class="cls-9" x="83.32" y="49.24" width="16.92" height=".62"/>
      <rect class="cls-9" x="83.32" y="61.04" width="16.92" height=".61"/>
      <path class="cls-4" d="m39.68,49.57s-1.25-.3.45-3.13c1.7-2.83,2.63-5.06,2.63-5.06l-1.32-2.43,4.51-11.46s15.23.81,15.57,1.33c.34.52,2.86,12.19,1.54,14.43-1.33,2.23-6.71,12.75-6.71,12.75,0,0-8.64,6.17-9.04,5.98-.4-.19-2.22-8.72-2.22-8.72l-3.69-1.67s-.26,1.59-1.72-2.03"/>
      <path class="cls-5" d="m53.24,27.94c3.97.27,10.23,0,10.44.32.21.32-.51,7.22-.27,11.47-.17.61-.28,1.07-.31,1.31-.1.92-2.06,5.17-3.89,9.43-1.51,2.91-2.86,5.54-2.86,5.54,0,0-3.48,2.49-6.12,4.25-1.02-.87-1.3-2.47.27-4.72,4.14-5.92-.09-11.32-.09-11.32-1.28.84-2.76.62-2.76.62,2.12-.27,2.81-1.34,2.81-1.34l.08-.69c1.06-1.94-.95-2.82-.95-2.82,3.3-3.59.23-9.01.23-9.01-.31-2.03,1.44-2.27,3.43-3.03"/>
      <path class="cls-4" d="m49.65,43.75s-.86.45-2.22.65c0,0-.61-.09-.93-.32-.23-.17-.2-.48-.21-.51,0-.07.3-1.21.39-1.23.09-.03.48-.28.7-.29.22,0,2.66.41,2.66.41,0,0,.84.5-.39,1.28"/>
      <path class="cls-1" d="m43.99,41.64c-.63-.62-1.26-1.24-1.89-1.86.48.08.97.17,1.45.25,0,0,.29-1.27,1.76-1.53.16.2.32.4.48.6,0,0,4.4-.91,6.3,1.11-.05.15-.11.3-.16.46,0,0-3.21-.42-5.79.17-.21.26-.43.52-.64.78.09.1.19.2.28.31,0,0,4.22-.96,5.95,1.49-.26-.06-.52-.12-.78-.17,0,0-.37.29-1.3.5.14-.22.29-.44.43-.66,0,0-.92-.57-2.78-.59,0,0,.38.98-.53,1.54.22.12.44.24.66.37,0,0-1.44.03-2.25-.4,0,0-.51.78-.49.71.02-.07-.22-1.58-.22-1.58-.82.97-1.65,1.93-2.47,2.9.55-1.05,1.11-2.11,1.66-3.16.11-.41.21-.82.32-1.23m-2.99,2.33c.39-.81.78-1.63,1.18-2.44-.67-.79-1.34-1.58-2.02-2.37-.38-.09-.75-.18-1.13-.27,0,.4,0,.8,0,1.2.7.53,1.4,1.05,2.1,1.58-.04.77-.09,1.53-.13,2.3Zm-1.07,12.56c-1.78-1.41-1.92-4.08-.29-5.37,0,0-1.81-.93-1.68-2.46.13-1.53,1.5-1.97,1.5-1.97,0,0-1.26,1.23-.8,2.17.46.94,2.28.73,2.28.73,0,0-1.03-.13-1.11-1.04.81,1.31,5.09-.85,4.64,1.8,0,0,1.74-1.2-.24-2.89,1.9.31,1.95,2.24,1.3,3.35,1.74.94,3.46,3.47,2.91,7.03,0,0,1.72-2.71,1.64-3.79,2.37-.61,3.64-1.8,4.87-3.55,0,0,.05,1.45-.32,3.48,2.52-3.82,6.02-13.34,1.56-15.08,0,0-3.85-6.14,7.11-10.45,0,0-7.82,1.98-9.34,3.32.12-.43.25-.86.37-1.29-.64.4-1.28.81-1.92,1.21-.03-.36-.07-.71-.1-1.07-4.61,2.21-10.86.52-11.52-5.53,0,0-.73,3.1.66,6.05-3.12-3.42-3.03-7.99-.36-12.37.42,7.55,6.94,9.59,6.94,9.59-2.04-1.29-4.32-4.48-4.97-6.8,1.17,1.95,4.38,4.62,10.35,5.97,0,0-4.79-3-7.17-4.77,3.39.22,8.36,1.81,12.05,3.71-2.01-2.95-8.49-4.57-8.49-4.57,5.96-1.24,12.99,3.97,12.99,3.97-2.04-3.37-7.81-5.16-7.81-5.16,6.15-.43,9.32,3.48,9.32,3.48-.96-1.66-1.91-2.86-2.89-3.71,3.4.44,6.28,1.57,7.79,4.31,0,0,4.45.18,5.77,4.33-.79-.74-1.98-1.27-2.39-1.26,0,0,6.56,5.27,1.03,15.13,0,0-.06-1.37-.59-2.85-.41,7.22-5.98,9.13-3.11,19.76,0,0-4.34,11.75-10.49,12.04,0,0-3.69-1.62-5.76-3.56-5.09,1.85-9.07.57-11.32,2.96-2.79-3.74-2.9-7.54-2.01-9.84-1.21,1.23-1.45,3.06-1.45,3.06-.46-2.59-.07-5.65,1.06-8.04Z"/>
      <path class="cls-4" d="m69.59,58.46c.08.48.48,1.09.62,1.58,0,0-.89,2.3-2.29,4.8-1.86,3.31-4.81,7.88-8.32,8.04,0,0-1.46-1.49-2.93-2.35-.75-.9-1.6-2.09-1.99-2.45,1.88-.84,3.59-1.81,4.56-3.69,0,0,.34.96-.31,1.88,0,0,3.65-2.52,4.41-7.64,0,0,.28,1.12.48,2.23,0,0,1.17-2.65.63-5.57,1.94-.35,1.95-2.56,1.95-2.56-1.39,3.18-6.1.73-4.29-3.16,0,0,.79-1.41.48-3.46-.31-2.05.99-5.57,4.5-4.65,0,0-1.03-.02-1.78.54,5.92-.49,3.26,4.01,2.97,9.09-.14,2.45.34,5.07,1.33,7.35"/>
      <path class="cls-5" d="m62.65,44.46c-.12.59-.15,1.17-.07,1.67.31,2.05-.48,3.46-.48,3.46-1.81,3.88,2.9,6.33,4.29,3.16,0,0-.01,2.21-1.95,2.56.54,2.92-.63,5.57-.63,5.57-.2-1.11-.48-2.23-.48-2.23-.75,5.12-4.41,7.64-4.41,7.64.65-.93.31-1.88.31-1.88-.97,1.88-2.68,2.85-4.56,3.69.26.24.73.85,1.23,1.49,6.03-1.24,8.92-8.48,8.92-8.48.14,1.6-.16,2.93-.16,2.93,4-4.34,2.73-11.33,2.35-12.31-.39-.98-.14-1.07.52-2.13.65-1.05.25-2.84.12-3.45-.12-.61.57-.46.57-.46l-.14-.92-.31-.56-1.12-.7-1.24,2.03s.88-1.86-.27-1.55c-1.15.32-.86,1.78-1.77,1.96-.89.17-.72-1.41-.71-1.49"/>
      <path class="cls-5" d="m41.34,55.86s.25,1.15,1.57.87c0,0,1.22.46,2.11-.66,0,0-.9-.72-2.12-.37-.42-.42-1.21-.35-1.56.16"/>
      <path class="cls-1" d="m66.03,49.15c.71-.64.13-2.06.13-2.06.68.28.82,1.48.82,1.48.57-1.49-.43-2.15-.81-2.91-.63-1.28,1.37-2.38,2.04.03.22-3.12-3.14-3.45-3.9-1.29-.49,1.38.57,3.17-.64,4.51-1.21,1.34-.03,2.05-.03,2.05.32-1.16,1.67-1.17,2.38-1.81"/>
      <path class="cls-4" d="m46.23,42.56c.19,0,.34.14.34.33,0,.19-.14.34-.33.34-.19,0-.34-.14-.34-.33s.14-.34.33-.34"/>
      <path class="cls-4" d="m46.74,43.14c.07,0,.13.05.13.12,0,.07-.05.13-.12.13-.07,0-.13-.05-.13-.12,0-.07.05-.13.12-.13"/>
      <path class="cls-1" d="m45.53,50.85s1.87.46,3.08,2.04c0,0-1.09-.5-2.89-.45-1.8.05-1.23-1.25-.19-1.59"/>
      <path class="cls-1" d="m71.01,63.78l.95,1,13.89,2.06c-4.65,8.29-12.67,14.23-21.94,16.27l4.55-10.6-1.69.52c2.58-2.97,3.74-6.38,4.25-9.25m-40.8,6.96l16.21-7.79,6.8-3.47-.16,1.6c-.99,2.38-3.49,3-3.49,3l1.68,3.41-2.58-2.81,1.2,18.48c-8.1-1.7-14.96-6.25-19.67-12.43Z"/>
      <path class="cls-1" d="m57.07,69.02c-.39.49-.86,1.38-.5,2.64.41-3.66,3.75-3.34,4.2-.99,0,0,.42-1.26-.26-2.04l4.05-3.05s1.33-.13,1.39,1.52c.51,5.65-1.32,7.43-1.82,7.53-.49.1-.3.61-.91.75-.61.14-2.44-1.56-2.44-1.56-1.84,1.56-3.24.03-3.24.03-1.39.33-1.27,2.69-2.26,2.72-.99.02-.81-1.14-.81-1.14-2.17,1.18-4.41-4.69-2.01-6.08-.71-1.1-.32-2.15.91-2.24,1.23-.09,3.68,1.9,3.68,1.9h0Z"/>
      <path class="cls-4" d="m61.09,68.72l3.76-2.5s1.25.65.58,4.23c0,0,.14-2.35-.5-3.51l-3.38,2.12s.09,2-.56,3.25c.22-1.26.33-2.32.1-3.59"/>
      <path class="cls-4" d="m57.56,69.68s-1.05,2.71.76,4.1c-1.64-.77-1.56-2.74-.76-4.1"/>
      <path class="cls-4" d="m53.72,75.09c-1.48-.85-2.28-3.32-1.32-5-.46,2.2.11,3.38,1.32,5"/>
      <path class="cls-4" d="m56.56,68.91s-1.93-1.32-2.88-1.47c-.95-.15-1.22.64-1.11,1.13,0,0,.22-1.04,1.08-.85.86.19,2.53,1.23,2.53,1.23,0,0-.62.9-.31,2.34.16-.95.17-1.58.69-2.39"/>
      <path class="cls-3" d="m62.67,78.53c-.02-.34-.14-.5-.34-.49-.07,0-.14.03-.21.09-.07.06-.14.14-.19.24l-.25,1.73c.04.09.13.13.27.12.14,0,.26-.08.36-.2.2-.24.31-.57.35-1,.02-.19.02-.36.01-.5m-1.06,2.04l-.22,1.51-.91.28.7-4.88.88-.06-.07.47c.19-.19.42-.29.69-.31.35-.02.59.13.72.46.05.12.07.26.09.42.01.16.01.32,0,.48,0,.16-.03.32-.06.49-.04.16-.09.32-.15.47-.06.15-.15.29-.25.41-.1.12-.23.22-.38.3-.15.08-.34.12-.56.14-.23.02-.39-.05-.49-.19Zm-1.63-1.51c-.11-.02-.17-.11-.18-.26-.01-.15.05-.26.17-.33-.02-.13-.04-.22-.08-.27-.04-.05-.1-.07-.2-.07-.19.01-.35.23-.49.65-.14.43-.2.8-.18,1.12.01.2.04.32.08.37.04.05.08.08.12.09.04.01.09.01.16.01.14,0,.27-.14.39-.39.12-.25.19-.56.22-.92Zm1.55-.63c-.23.27-.58.47-1.05.58-.01.56-.14,1.02-.39,1.37-.25.35-.56.54-.94.57-.47.03-.78-.12-.94-.46-.05-.12-.09-.25-.1-.4,0-.15,0-.3,0-.45.01-.15.04-.31.09-.48.1-.37.25-.68.47-.92.26-.29.58-.45.96-.47.52-.03.81.27.85.92h0s.05,0,.1,0c.11,0,.25-.05.41-.13.17-.08.32-.18.47-.29l.07.16Zm-4.09,1.78c.01.18.09.26.24.25.14,0,.24-.06.31-.15.07-.09.13-.23.19-.42l.26-.02c-.19.7-.49,1.1-.89,1.18-.06.01-.14.02-.23.03-.09,0-.19,0-.28-.04-.26-.09-.4-.29-.42-.6-.01-.17.02-.44.08-.81.07-.37.1-.63.09-.77-.01-.21-.09-.31-.24-.3-.15,0-.27.14-.37.38-.03.07-.05.14-.07.22l-.28,1.99-.88.06.61-4.21.9-.18-.23,1.56c.18-.24.41-.37.69-.39.2-.01.36.03.5.13.14.1.21.25.22.46.01.21,0,.45-.05.72l-.11.6c-.02.13-.03.24-.03.32Zm-3.44-2.32c.18-.12.25-.31.24-.58,0-.08-.04-.16-.11-.24-.07-.08-.19-.11-.36-.1-.17.01-.31.07-.4.17-.1.1-.14.22-.13.37,0,.15.04.27.08.36.08.16.22.31.41.46l.27.21c.24.19.4.34.49.47.17.25.27.52.29.79.03.51-.12.91-.45,1.21-.3.27-.69.43-1.17.46-.59.04-1-.12-1.23-.49-.08-.13-.12-.28-.14-.46-.02-.32.05-.58.22-.77.17-.19.37-.3.6-.31.23-.02.39.04.5.17.04.05.07.11.08.19-.31.02-.52.14-.63.35-.04.08-.06.16-.05.25.01.17.07.31.18.42.11.11.26.16.46.14.2-.01.36-.1.48-.25.12-.15.18-.33.16-.55-.01-.22-.06-.39-.13-.53-.07-.14-.16-.26-.26-.38-.1-.11-.21-.22-.32-.33-.11-.1-.22-.21-.32-.31-.23-.25-.36-.5-.38-.74-.02-.31.1-.59.35-.81.26-.23.58-.35.98-.38.49-.03.81.1.96.38.04.08.07.19.08.33,0,.15-.03.28-.11.4-.08.12-.19.19-.32.2-.13,0-.24-.03-.32-.11Z"/>
      <path class="cls-1" d="m62.93,5.61c-.01-.37-.07-.66-.17-.89-.1-.22-.21-.33-.34-.32-.13.01-.24.15-.35.41-.11.26-.18.55-.2.88.41,0,.7,0,.87,0,.12,0,.18-.04.18-.1m.97-.02c.02.14.02.23.02.27-.03.07-.1.11-.21.12-.37.03-.99.04-1.85.03,0,.13-.01.26-.01.39,0,1.23.27,1.84.81,1.84.37,0,.67-.43.89-1.3h.03c.05,0,.11.02.16.07.05.05.08.12.08.22,0,.06-.01.13-.04.2-.32.81-.87,1.21-1.65,1.2-.49,0-.87-.25-1.14-.72-.24-.43-.35-.96-.33-1.57.03-.61.18-1.11.45-1.51.31-.46.73-.69,1.27-.68.79,0,1.27.33,1.44.98.04.17.07.32.09.46Zm-3.41,2.75c.05-.03.08,0,.08.07,0,.07-.03.13-.1.19-.43.35-.88.55-1.35.59-.08,0-.14-.03-.17-.11-.03-.08-.05-.24-.04-.46.05-.61.11-1.55.18-2.79,0-.39-.05-.68-.17-.84-.09-.11-.2-.16-.33-.16-.29.04-.43.32-.44.83-.01,1.12,0,1.93.02,2.42,0,.13.17.17.49.14.07,0,.11.03.11.1,0,.09-.06.15-.17.17-.41.09-.82.14-1.24.14s-.73-.05-.9-.15c-.06-.04-.09-.09-.09-.15s.05-.08.14-.07c.03,0,.1,0,.2.03.1.02.16.03.2.03.06,0,.1-.02.1-.07.09-2.94.1-5.06.02-6.37,0-.07-.02-.1-.03-.12-.03-.03-.11-.05-.24-.05-.1,0-.24.01-.42.03-.04,0-.06-.02-.06-.08,0-.09.04-.15.13-.18.51-.14.99-.2,1.44-.19.08,0,.18.02.3.06.03.03.04.07.04.13l-.03,3.49c.1-.17.27-.33.5-.48.21-.14.42-.21.63-.24.27-.03.5.04.68.23.18.18.27.46.26.83,0,.32-.04.84-.11,1.56-.05.63-.08,1.09-.07,1.38,0,.12.06.18.17.18.07,0,.17-.03.28-.08Zm-3.62-6.24c.02.48,0,.89-.05,1.21-.03.15-.13.22-.32.22-.1,0-.19-.04-.26-.11-.39-.39-.91-.89-1.57-1.49,0,1.53.02,2.57.03,3.1.03,1.19.09,2.22.18,3.08,0,.08.09.11.25.11h.15c.06,0,.1-.01.13-.01.08,0,.12.02.11.05-.01.15-.28.27-.8.34-.33.05-.69.07-1.06.07-.78,0-1.16-.1-1.12-.31,0-.04.07-.06.19-.06h.45c.17,0,.25-.04.26-.11.13-1.41.19-3.76.19-7.04-.67-.46-1.22-.7-1.64-.73-.47-.03-.84.1-1.13.4-.33.35-.49.88-.49,1.59,0,.19.01.4.04.61.12,1.07.42,1.92.9,2.54.33.41.65.65.97.73.03,0,.07,0,.11,0,.2,0,.36-.08.49-.22.06-.06.1-.18.12-.36.01-.15.05-.22.1-.23.09-.01.13.05.13.17,0,.13-.04.26-.12.41-.11.18-.24.31-.41.4-.17.08-.39.13-.68.13-.17,0-.31-.03-.44-.08-.41-.17-.8-.52-1.16-1.03-.54-.76-.78-1.67-.73-2.74.02-.67.25-1.27.66-1.8.49-.65,1.14-.97,1.93-.97.21,0,.42.03.64.07.5.1,1.18.48,2.03,1.15.55.44,1.1.88,1.64,1.31.05.03.07-.02.08-.13.01-.09.01-.2,0-.31,0-.06.02-.1.08-.1.08,0,.12.04.12.11Z"/>
      <polygon class="cls-1" points="72.92 2.95 73.07 5.97 75.99 6.74 73.17 7.82 73.33 10.84 71.43 8.49 68.61 9.58 70.26 7.04 68.35 4.7 71.27 5.49 72.92 2.95"/>
      <polygon class="cls-1" points="87.71 9.74 87.11 12.53 89.59 13.95 86.74 14.25 86.16 17.04 85 14.43 82.16 14.73 84.29 12.83 83.12 10.22 85.59 11.65 87.71 9.74"/>
      <polygon class="cls-1" points="99.67 19.05 98.64 21.06 100.24 22.66 98.01 22.3 96.99 24.32 96.64 22.08 94.4 21.74 96.42 20.71 96.06 18.48 97.66 20.08 99.67 19.05"/>
      <polygon class="cls-1" points="40.67 2.95 40.52 5.97 37.6 6.74 40.42 7.82 40.26 10.84 42.16 8.49 44.98 9.58 43.33 7.04 45.23 4.7 42.31 5.49 40.67 2.95"/>
      <polygon class="cls-1" points="25.88 9.74 26.48 12.53 24 13.95 26.84 14.25 27.43 17.04 28.59 14.43 31.43 14.73 29.3 12.83 30.47 10.22 28 11.65 25.88 9.74"/>
      <polygon class="cls-1" points="13.92 19.05 14.95 21.06 13.35 22.66 15.58 22.3 16.6 24.32 16.95 22.08 19.18 21.74 17.17 20.71 17.53 18.48 15.93 20.08 13.92 19.05"/>
    </g>
  </g>
</svg>