<?xml version="1.0" encoding="UTF-8"?>
<svg id="Layer_2" data-name="Layer 2" xmlns="http://www.w3.org/2000/svg" viewBox="0 0 111.33 33.89">
  <defs>
    <style>
      .cls-1 {
        stroke: #231f20;
        stroke-linecap: round;
        stroke-miterlimit: 10;
        stroke-width: 2px;
      }

      .cls-2 {
        fill: #231f20;
      }
    </style>
  </defs>
  <g id="Layer_1-2" data-name="Layer 1">
    <g>
      <g>
        <path d="m39.81,0v4.73h-21.8v.03H7.69c-.74,0-1.37.22-1.88.67-.52.44-.77,1-.77,1.66s.26,1.22.77,1.68c.51.46,1.14.68,1.88.68h5.58c1.05,0,2.05.19,2.99.56.94.38,1.76.88,2.45,1.52.69.64,1.24,1.39,1.65,2.26.4.87.6,1.79.6,2.77v.31c0,.98-.2,1.91-.6,2.77-.4.87-.95,1.62-1.65,2.26-.69.64-1.51,1.15-2.45,1.52-.94.38-1.94.56-2.99.56H2.39v-4.76h10.88c.72,0,1.34-.23,1.86-.68.53-.46.79-1.02.79-1.68v-.31c0-.66-.26-1.22-.79-1.68-.53-.46-1.15-.68-1.86-.68h-5.58c-1.05,0-2.05-.19-2.99-.56s-1.76-.88-2.45-1.52c-.69-.64-1.24-1.39-1.65-2.25s-.6-1.79-.6-2.77.2-1.9.6-2.75c.4-.85.95-1.61,1.65-2.25.69-.65,1.51-1.16,2.45-1.54.94-.38,1.94-.56,2.99-.56h32.12Zm-15.92,14.93v-4.73h15.92v4.73h-15.92Zm15.92,4.42v4.73h-15.92v-4.73h15.92Zm22.31-10.7c0,1.69-.45,3.21-1.34,4.56-.9,1.36-2.07,2.39-3.53,3.09l4.4,7.76h-5.78l-3.9-6.92h-3.39v6.95h-5.04v-11.92h9.91c.49,0,.96-.09,1.41-.27.45-.18.83-.44,1.16-.77.32-.33.58-.71.77-1.15.19-.43.29-.89.29-1.37s-.1-.97-.29-1.4c-.19-.43-.45-.81-.77-1.13-.32-.32-.71-.58-1.16-.77-.45-.19-.92-.29-1.41-.29h-9.91V.14h9.91c1.19,0,2.31.22,3.36.67,1.05.44,1.97,1.05,2.75,1.83.78.78,1.41,1.68,1.86,2.72.46,1.04.69,2.14.69,3.3Zm18.44,1.42c.83.73,1.47,1.6,1.93,2.62.46,1.02.69,2.11.69,3.27s-.23,2.17-.69,3.17c-.46.99-1.08,1.86-1.86,2.59-.78.73-1.7,1.31-2.75,1.75-1.05.43-2.17.65-3.36.65h-9.91v-4.73h9.91c.49,0,.96-.09,1.41-.27.45-.18.83-.43,1.16-.74.32-.31.58-.67.77-1.08.19-.41.29-.86.29-1.34s-.1-.92-.29-1.34c-.19-.41-.45-.77-.77-1.08-.32-.31-.71-.55-1.16-.74-.45-.18-.92-.27-1.41-.27h-9.91v-4.73h10.68c.42,0,.79-.14,1.09-.43s.45-.63.45-1.02c0-.42-.15-.77-.45-1.06s-.67-.43-1.09-.43h-10.68V.14h10.68c.9,0,1.75.17,2.56.49.81.33,1.51.77,2.1,1.33.59.56,1.05,1.22,1.4,1.98.35.76.52,1.56.52,2.41,0,1.39-.44,2.63-1.31,3.72Zm5.14-4.11V.14h5.04v5.82h-5.04Zm0,4.69h5.04v13.42h-5.04v-13.42Z"/>
        <path d="m95.41,4.9V.17h15.92v4.73h-15.92Zm0,10.07v-4.73h15.92v4.73h-15.92Zm15.92,4.42v4.73h-15.92v-4.73h15.92Z"/>
      </g>
      <g>
        <path class="cls-2" d="m85.99,27.58l-1.01,1.1c-.24-.3-.71-.44-1.06-.44-.4,0-.99.19-.99.69,0,.58.71.71,1.44.93.8.25,1.63.63,1.63,1.84,0,1.52-1.22,2.2-2.57,2.2-.86,0-1.61-.25-2.24-.84l1.05-1.15c.31.4.78.63,1.28.63.4,0,1.02-.18,1.02-.7,0-.58-.71-.74-1.45-.98-.82-.26-1.68-.64-1.68-1.81,0-1.42,1.24-2.17,2.54-2.17.74,0,1.47.2,2.04.7Z"/>
        <path class="cls-2" d="m86.48,27.05h5.28v1.3h-1.9v5.37h-1.47v-5.37h-1.9v-1.3Z"/>
        <path class="cls-2" d="m99.34,30.39c0,2.12-1.51,3.51-3.6,3.51s-3.6-1.38-3.6-3.51,1.5-3.51,3.6-3.51,3.6,1.39,3.6,3.51Zm-3.6,2.15c1.24,0,2.07-.89,2.07-2.15s-.83-2.15-2.08-2.15-2.06.89-2.06,2.15.82,2.15,2.07,2.15Z"/>
        <path class="cls-2" d="m100.34,33.72v-6.67h2.63c1.21,0,2.47.41,2.47,2.03,0,.98-.54,1.66-1.44,1.83l1.7,2.82h-1.76l-1.39-2.67h-.73v2.67h-1.47Zm2.38-3.91c.68,0,1.19-.11,1.19-.74,0-.55-.4-.77-1.1-.77h-1v1.52h.91Z"/>
        <path class="cls-2" d="m106.5,27.05h4.53v1.36h-3.06v1.24h2.89v1.36h-2.89v1.36h3.23v1.36h-4.7v-6.67Z"/>
      </g>
      <line class="cls-1" x1="79.72" y1="30.07" x2="2.3" y2="30.07"/>
    </g>
  </g>
</svg>