<?xml version="1.0" encoding="UTF-8"?>
<svg id="Layer_2" data-name="Layer 2" xmlns="http://www.w3.org/2000/svg" viewBox="0 0 391.19 277.76">
  <defs>
    <style>
      .cls-1 {
        fill: #fff;
      }

      .cls-2 {
        fill: #a5077c;
      }
    </style>
  </defs>
  <g id="Layer_1-2" data-name="Layer 1">
    <g>
      <g>
        <path class="cls-1" d="m42,172.13h0c-9.35-10.36-8.52-26.34,1.84-35.69L187.91,6.5c10.36-9.35,26.34-8.52,35.69,1.84h0c9.35,10.36,8.52,26.34-1.84,35.69L77.69,173.97c-10.36,9.35-26.34,8.52-35.69-1.84Z"/>
        <circle class="cls-2" cx="97.61" cy="45.57" r="20.3" transform="translate(30.83 130.1) rotate(-76.72)"/>
        <circle class="cls-2" cx="258.96" cy="65.87" r="20.3"/>
        <path class="cls-1" d="m228.3,128.76l-67.01,60.44c-10.73,9.68-27.28,8.83-36.96-1.91h0c-9.68-10.73-8.83-27.28,1.91-36.96l67.01-60.44c10.73-9.68,27.28-8.83,36.96,1.91h0c9.68,10.73,8.83,27.28-1.91,36.96Z"/>
      </g>
      <g>
        <path class="cls-1" d="m0,274.58v-45.24h9.56v18.66h19.42v-18.66h9.54v45.24h-9.54v-18.69H9.56v18.69H0Z"/>
        <path class="cls-1" d="m55.91,275.22c-2.16,0-4.09-.38-5.79-1.14-1.69-.76-3.03-1.88-4.01-3.38-.98-1.49-1.47-3.36-1.47-5.6,0-1.88.35-3.47,1.04-4.75.69-1.28,1.63-2.31,2.83-3.09,1.19-.78,2.55-1.37,4.08-1.77,1.52-.4,3.13-.68,4.8-.84,1.97-.21,3.56-.4,4.77-.59,1.21-.18,2.08-.46,2.63-.83.54-.37.82-.91.82-1.63v-.13c0-1.4-.44-2.48-1.31-3.25-.88-.77-2.12-1.15-3.72-1.15-1.69,0-3.04.37-4.04,1.12-1,.74-1.66,1.67-1.99,2.79l-8.7-.71c.44-2.06,1.31-3.85,2.61-5.36,1.3-1.51,2.97-2.67,5.03-3.49s4.44-1.23,7.15-1.23c1.88,0,3.69.22,5.42.66,1.73.44,3.27,1.13,4.62,2.05,1.35.93,2.41,2.12,3.19,3.57.78,1.45,1.17,3.18,1.17,5.2v22.88h-8.92v-4.7h-.27c-.54,1.06-1.27,1.99-2.19,2.79-.91.8-2.01,1.43-3.29,1.88-1.28.45-2.76.67-4.44.67Zm2.69-6.49c1.38,0,2.61-.28,3.67-.83,1.06-.55,1.89-1.3,2.5-2.24.6-.94.91-2.01.91-3.2v-3.6c-.29.19-.7.36-1.2.52s-1.08.29-1.71.42c-.63.13-1.27.24-1.9.33-.63.1-1.21.18-1.72.25-1.1.16-2.07.42-2.89.77-.82.35-1.47.83-1.92,1.42-.46.6-.68,1.34-.68,2.22,0,1.28.47,2.26,1.4,2.93.93.67,2.12,1.01,3.57,1.01Z"/>
        <path class="cls-1" d="m110.55,250.33l-8.61.53c-.15-.74-.46-1.4-.95-2-.49-.6-1.12-1.08-1.91-1.44-.79-.36-1.73-.54-2.82-.54-1.46,0-2.69.31-3.69.92-1,.61-1.5,1.42-1.5,2.44,0,.81.32,1.49.97,2.05.65.56,1.76,1.01,3.34,1.35l6.14,1.24c3.3.68,5.76,1.77,7.38,3.27,1.62,1.5,2.43,3.48,2.43,5.92,0,2.22-.65,4.17-1.95,5.85-1.3,1.68-3.09,2.99-5.35,3.92-2.26.93-4.86,1.4-7.81,1.4-4.49,0-8.07-.94-10.72-2.82-2.66-1.88-4.22-4.44-4.67-7.68l9.25-.49c.28,1.37.96,2.41,2.03,3.13,1.07.71,2.45,1.07,4.13,1.07s2.98-.32,3.99-.96c1.01-.64,1.52-1.47,1.54-2.48-.01-.85-.38-1.56-1.08-2.11-.71-.55-1.8-.98-3.27-1.27l-5.88-1.17c-3.31-.66-5.78-1.81-7.39-3.45-1.61-1.63-2.42-3.72-2.42-6.25,0-2.18.59-4.06,1.78-5.63,1.19-1.58,2.86-2.79,5.01-3.64,2.16-.85,4.69-1.28,7.59-1.28,4.29,0,7.66.91,10.13,2.72,2.47,1.81,3.91,4.28,4.32,7.4Z"/>
        <path class="cls-1" d="m126.68,254.97v19.61h-9.41v-45.24h9.14v17.29h.4c.77-2,2-3.57,3.71-4.72,1.71-1.14,3.85-1.71,6.43-1.71,2.36,0,4.41.51,6.17,1.54,1.76,1.02,3.13,2.49,4.11,4.4.98,1.91,1.46,4.19,1.45,6.84v21.6h-9.41v-19.92c.01-2.09-.51-3.72-1.58-4.88-1.07-1.16-2.56-1.74-4.47-1.74-1.28,0-2.41.27-3.39.82-.98.54-1.75,1.34-2.3,2.37-.55,1.04-.84,2.29-.85,3.74Z"/>
        <path class="cls-1" d="m156.27,274.58v-45.24h9.41v17.01h.29c.41-.91,1.01-1.84,1.8-2.79.79-.95,1.82-1.75,3.09-2.39,1.27-.64,2.86-.96,4.76-.96,2.47,0,4.76.64,6.85,1.93,2.09,1.29,3.76,3.22,5.01,5.81,1.25,2.58,1.88,5.82,1.88,9.71s-.61,6.98-1.82,9.58-2.86,4.56-4.95,5.9c-2.08,1.33-4.41,2-6.99,2-1.83,0-3.38-.3-4.65-.9-1.27-.6-2.32-1.37-3.13-2.29-.81-.92-1.43-1.85-1.86-2.79h-.42v5.43h-9.28Zm9.21-16.96c0,2.02.28,3.78.84,5.28.56,1.5,1.37,2.67,2.43,3.5,1.06.83,2.35,1.25,3.87,1.25s2.83-.42,3.89-1.27c1.06-.85,1.87-2.02,2.42-3.53.55-1.51.83-3.25.83-5.22s-.27-3.68-.82-5.17c-.54-1.49-1.35-2.65-2.41-3.49-1.06-.84-2.36-1.26-3.91-1.26s-2.82.4-3.88,1.21c-1.05.81-1.86,1.96-2.42,3.45-.56,1.49-.84,3.24-.84,5.26Z"/>
        <path class="cls-1" d="m200.34,236.28c-1.4,0-2.6-.47-3.59-1.4-.99-.93-1.49-2.06-1.49-3.37s.5-2.41,1.49-3.35c.99-.94,2.19-1.4,3.59-1.4s2.6.47,3.59,1.4,1.49,2.05,1.49,3.35-.5,2.43-1.49,3.37c-.99.94-2.19,1.4-3.59,1.4Zm-4.73,38.3v-33.93h9.41v33.93h-9.41Z"/>
        <path class="cls-1" d="m229.71,267.16c-.24.04-.57.11-1.02.19-.44.08-.88.12-1.33.12-.63,0-1.19-.1-1.67-.29-.48-.19-.85-.53-1.12-1s-.4-1.15-.4-2.02v-16.43h6.38v-7.07h-6.38v-8.13h-9.41v8.13h-4.64v7.07h4.64v17.67c-.02,2.22.45,4.06,1.39,5.52.94,1.46,2.26,2.53,3.96,3.23,1.7.69,3.68.99,5.95.91,1.22-.04,2.26-.17,3.11-.37.85-.2,1.52-.37,1.99-.52l-1.48-7Z"/>
      </g>
      <g>
        <path class="cls-2" d="m259.41,251.85c-.14-1.4-.74-2.49-1.79-3.27-1.06-.78-2.49-1.17-4.3-1.17-1.23,0-2.27.17-3.11.51-.85.34-1.49.82-1.94,1.42-.45.6-.67,1.29-.67,2.05-.02.64.11,1.19.41,1.67.3.48.7.88,1.23,1.23.52.34,1.12.64,1.81.89.68.25,1.41.46,2.19.64l3.2.76c1.55.35,2.98.81,4.28,1.39,1.3.58,2.42,1.29,3.37,2.14.95.85,1.69,1.84,2.22,2.99.53,1.15.8,2.46.81,3.95-.01,2.18-.57,4.07-1.66,5.66s-2.67,2.83-4.73,3.71c-2.06.88-4.54,1.31-7.44,1.31s-5.38-.44-7.51-1.32c-2.13-.88-3.79-2.19-4.98-3.92-1.19-1.73-1.81-3.88-1.87-6.45h7.29c.08,1.19.43,2.19,1.04,2.98.61.79,1.43,1.39,2.45,1.79,1.03.4,2.19.6,3.49.6s2.39-.18,3.33-.56c.95-.37,1.68-.89,2.2-1.55.52-.66.78-1.42.78-2.28,0-.8-.23-1.47-.7-2.02-.47-.55-1.15-1.01-2.05-1.39-.9-.38-2-.73-3.3-1.04l-3.88-.97c-3-.73-5.38-1.87-7.12-3.43-1.74-1.55-2.6-3.65-2.59-6.28-.01-2.16.57-4.04,1.73-5.65,1.17-1.61,2.77-2.87,4.81-3.78,2.04-.9,4.36-1.36,6.96-1.36s4.96.45,6.93,1.36c1.98.9,3.52,2.16,4.62,3.78,1.1,1.61,1.67,3.48,1.7,5.6h-7.22Z"/>
        <path class="cls-2" d="m285.56,271.39c-.19.03-.45.08-.8.15-.35.06-.7.1-1.04.1-.5,0-.94-.07-1.31-.23-.38-.15-.67-.41-.88-.79s-.31-.91-.31-1.59v-12.94h5.03v-5.57h-5.03v-6.4h-7.41v6.4h-3.65v5.57h3.65v13.92c-.01,1.75.35,3.2,1.1,4.35.74,1.15,1.78,2,3.12,2.54,1.34.54,2.9.78,4.69.71.96-.04,1.78-.13,2.45-.29.67-.16,1.19-.29,1.57-.41l-1.17-5.52Z"/>
        <path class="cls-2" d="m308.19,265.86v-15.34h7.41v26.72h-7.12v-4.85h-.28c-.6,1.57-1.6,2.82-3,3.78-1.4.95-3.1,1.43-5.11,1.43-1.79,0-3.36-.41-4.71-1.22-1.36-.81-2.42-1.97-3.18-3.46-.76-1.5-1.15-3.29-1.16-5.38v-17.01h7.41v15.69c.01,1.58.43,2.82,1.27,3.74.83.92,1.95,1.37,3.36,1.37.89,0,1.73-.21,2.51-.62.78-.41,1.41-1.02,1.89-1.84.48-.81.72-1.81.7-3.01Z"/>
        <path class="cls-2" d="m331.36,277.67c-2.03,0-3.87-.52-5.51-1.57-1.64-1.05-2.94-2.6-3.9-4.65s-1.44-4.56-1.44-7.54.49-5.61,1.48-7.65c.99-2.04,2.3-3.56,3.94-4.58,1.64-1.01,3.44-1.52,5.4-1.52,1.5,0,2.75.25,3.75.76,1,.5,1.81,1.13,2.44,1.88.62.75,1.09,1.48,1.42,2.2h.23v-13.4h7.39v35.63h-7.31v-4.28h-.31c-.35.74-.84,1.48-1.47,2.2-.63.73-1.45,1.33-2.45,1.8-1,.47-2.22.71-3.66.71Zm2.35-5.9c1.19,0,2.21-.33,3.04-.98.83-.65,1.47-1.57,1.91-2.76.45-1.18.67-2.57.67-4.16s-.22-2.97-.66-4.14c-.44-1.17-1.08-2.08-1.91-2.71-.83-.64-1.85-.96-3.04-.96s-2.24.33-3.08.99c-.83.66-1.47,1.58-1.9,2.75-.43,1.17-.64,2.53-.64,4.07s.22,2.93.65,4.11c.44,1.19,1.07,2.12,1.9,2.78.83.67,1.85,1,3.07,1Z"/>
        <path class="cls-2" d="m356.36,247.07c-1.1,0-2.04-.37-2.83-1.11-.78-.74-1.17-1.62-1.17-2.65s.39-1.9,1.17-2.64c.78-.74,1.72-1.1,2.83-1.1s2.04.37,2.83,1.1,1.17,1.61,1.17,2.64-.39,1.92-1.17,2.65c-.78.74-1.73,1.11-2.83,1.11Zm-3.72,30.17v-26.72h7.41v26.72h-7.41Z"/>
        <path class="cls-2" d="m378.04,277.76c-2.7,0-5.04-.58-7-1.73-1.97-1.15-3.48-2.77-4.55-4.84-1.07-2.07-1.6-4.47-1.6-7.21s.53-5.18,1.6-7.25c1.07-2.07,2.58-3.68,4.55-4.84,1.97-1.15,4.3-1.73,7-1.73s5.04.58,7,1.73c1.97,1.15,3.48,2.77,4.55,4.84,1.07,2.07,1.6,4.49,1.6,7.25s-.53,5.14-1.6,7.21c-1.07,2.07-2.58,3.68-4.55,4.84-1.97,1.15-4.3,1.73-7,1.73Zm.03-5.74c1.23,0,2.26-.35,3.08-1.05.82-.7,1.45-1.66,1.87-2.88.42-1.22.63-2.6.63-4.16s-.21-2.94-.63-4.16c-.42-1.22-1.05-2.18-1.87-2.89-.82-.71-1.85-1.06-3.08-1.06s-2.28.35-3.12,1.06c-.84.71-1.47,1.67-1.9,2.89-.42,1.22-.63,2.6-.63,4.16s.21,2.94.63,4.16c.42,1.22,1.06,2.18,1.9,2.88.84.7,1.88,1.05,3.12,1.05Z"/>
      </g>
    </g>
  </g>
</svg>