<?xml version="1.0" encoding="UTF-8"?>
<svg id="Layer_2" data-name="Layer 2" xmlns="http://www.w3.org/2000/svg" viewBox="0 0 291.11 234">
  <defs>
    <style>
      .cls-1 {
        fill: #fff;
      }

      .cls-2 {
        fill: #a91079;
      }
    </style>
  </defs>
  <g id="Layer_1-2" data-name="Layer 1">
    <g>
      <path class="cls-1" d="m7.77,205.57h0c-11.16-12.38-10.18-31.46,2.2-42.62L182.03,7.77c12.38-11.16,31.46-10.18,42.62,2.2h0c11.16,12.38,10.18,31.46-2.2,42.62L50.39,207.77c-12.38,11.16-31.46,10.18-42.62-2.2Z"/>
      <circle class="cls-2" cx="74.18" cy="54.42" r="24.25" transform="translate(4.17 114.11) rotate(-76.72)"/>
      <circle class="cls-2" cx="266.87" cy="78.67" r="24.25"/>
      <path class="cls-1" d="m230.26,153.77l-80.03,72.18c-12.82,11.56-32.58,10.54-44.14-2.28h0c-11.56-12.82-10.54-32.58,2.28-44.14l80.03-72.18c12.82-11.56,32.58-10.54,44.14,2.28h0c11.56,12.82,10.54,32.58-2.28,44.14Z"/>
    </g>
  </g>
</svg>